HIERARCHY
ROOT Spine
{
    OFFSET 0.0 0.0 -0.0
    CHANNELS 6 Xposition Yposition Zposition Zrotation Xrotation Yrotation
    JOINT ShoulderCenter
    {
        OFFSET 0.0 23.06056785583496 0.0
        CHANNELS 3 Zrotation Xrotation Yrotation
        JOINT LeftShoulder
        {
            OFFSET 16.252056121826172 0.0 0.0
            CHANNELS 3 Zrotation Xrotation Yrotation
            JOINT LeftElbow
            {
                OFFSET 22.971538543701172 0.0 0.0
                CHANNELS 3 Zrotation Xrotation Yrotation
                JOINT LeftHand
                {
                    OFFSET 24.61423110961914 0.0 0.0
                    CHANNELS 3 Zrotation Xrotation Yrotation
                    End Site
                    {
                        OFFSET 9.845693588256836 0.0 0.0
                    }
                }
            }
        }
        JOINT RightShoulder
        {
            OFFSET -16.252056121826172 0.0 0.0
            CHANNELS 3 Zrotation Xrotation Yrotation
            JOINT RightElbow
            {
                OFFSET -22.971538543701172 0.0 0.0
                CHANNELS 3 Zrotation Xrotation Yrotation
                JOINT RightHand
                {
                    OFFSET -24.61423110961914 0.0 0.0
                    CHANNELS 3 Zrotation Xrotation Yrotation
                    End Site
                    {
                        OFFSET -9.845693588256836 0.0 0.0
                    }
                }
            }
        }
        End Site
        {
            OFFSET 0.0 9.224227905273438 0.0
        }
    }
    JOINT LeftHip
    {
        OFFSET 22.69262390458727 -22.69262390458727 0.0
        CHANNELS 3 Zrotation Xrotation Yrotation
        JOINT LeftKnee
        {
            OFFSET 0.0 -30.272043228149414 0.0
            CHANNELS 3 Zrotation Xrotation Yrotation
            JOINT LeftFoot
            {
                OFFSET 0.0 -38.77778625488281 0.0
                CHANNELS 3 Zrotation Xrotation Yrotation
                End Site
                {
                    OFFSET 0.0 0.0 15.511114120483398
                }
            }
        }
    }
    JOINT RightHip
    {
        OFFSET -22.69262390458727 -22.69262390458727 0.0
        CHANNELS 3 Zrotation Xrotation Yrotation
        JOINT RightKnee
        {
            OFFSET 0.0 -30.272043228149414 0.0
            CHANNELS 3 Zrotation Xrotation Yrotation
            JOINT RightFoot
            {
                OFFSET 0.0 -38.77778625488281 0.0
                CHANNELS 3 Zrotation Xrotation Yrotation
                End Site
                {
                    OFFSET 0.0 0.0 15.511114120483398
                }
            }
        }
    }
}
MOTION
Frames: 7
Frame Time: 0.03333333333333333
0.5828999876976013 20.149799346923828 -257.97589111328125 0.48856788765960113 3.9603018170585673 -12.216967172227188 3.006941781354234e-08 -1.550110265928668e-07 177.3145450545186 -77.47472897227516 -30.060760386568266 5.292411940236889 8.043018180091409e-06 -1.3231962648346617e-06 22.755005991221747 -7.106551866395046e-15 3.2799470152592518e-15 1.2921003393445538e-15 34.16280243924416 52.19256778883282 -92.08496505138238 4.537119260407129e-07 4.087060081923071e-06 -113.09986561830914 -3.1805546814635168e-15 7.156248033292914e-15 1.9862578341225716e-31 -1.2530481266191855 14.160684295802746 -54.768751263305155 22.85231849863917 -9.237982393548435 61.839310460945654 -3.975693351829396e-16 -3.706991617503063e-33 1.0684675883041502e-15 -4.154691395040041 8.726490768970573 65.02789815400864 -20.658067246787816 -11.867106853627133 -97.77596701689603 -9.939233379573488e-16 4.0626041854612056e-32 -4.683863730124006e-15
0.5468999743461609 20.13409996032715 -257.96807861328125 0.4084421168239575 3.943952936533368 -12.26312220221902 -6.889294379264737e-08 4.2539257391161655e-07 177.69684884453068 -77.16538445973114 -33.189663454693545 5.841801401879787 -3.668113494854903e-06 -5.048911214071473e-08 22.39584082366843 -9.044702375411874e-15 2.9817700138720464e-15 7.951386703658792e-16 34.71611742005318 51.9105806916094 -92.99674617916342 1.4221994191628823e-06 1.341087587647861e-06 -114.10214367113774 0.0 0.0 4.770832022195275e-15 -1.1127690121132454 14.260629379716084 -54.87351234689771 23.038675641918676 -9.349757817486859 62.92016520893033 -1.7241821476758432e-34 -7.951386703658792e-16 -2.4848083448933725e-17 -4.00671561074145 8.789569837762205 64.95349899350211 -20.79674319899209 -11.841454805923153 -98.32663548548945 3.4787316828507215e-16 1.2424041724466847e-17 -4.864012335128776e-15
0.49140000343322754 20.103300094604492 -257.9682922363281 0.2711965585842886 3.938045101587174 -11.976399824612919 7.243945048861533e-08 -6.65114849284616e-07 177.66740580017654 -77.13181108133107 -33.867768384234424 6.279559987431096 1.3588489526086179e-06 1.2429452941822656e-06 20.879567922688903 3.379339349054987e-15 -1.055199474377616e-31 -3.578124016646457e-15 35.403461323989106 51.89566456667443 -93.3413755512181 -2.415094019285333e-06 -1.3402237424072564e-06 -118.34261718235246 -3.1805546814635164e-15 7.95138670365879e-16 1.5902773407317582e-15 -0.7231445345938609 14.306628548367447 -55.59496589575904 23.05084461050121 -9.334659101462703 63.98341914727285 0.0 0.0 1.7393658414253607e-16 -3.654422372558944 8.951884587257895 64.20674843941586 -20.924429728132015 -11.885863709309769 -97.65230601289058 -1.987846675914698e-16 1.5927132589155602e-32 -9.181366834381012e-15
0.4861999750137329 20.090599060058594 -257.9952087402344 0.08786096515467619 3.840445474157623 -11.663785151738736 -9.327143318595294e-09 -6.208999062512117e-08 177.86771486175337 -76.65688114903661 -35.996061854493334 6.636170436253858 4.63164789108224e-07 1.3375589039948466e-06 20.496803399869552 -9.93923337957349e-16 -3.1805546814635168e-15 2.3854160110976376e-15 30.809541018705072 51.538878019325146 -87.66909522202232 -1.0449948302870106e-06 2.662468928706031e-06 -123.84398509859706 -6.3611093629270335e-15 0.0 0.0 -0.609288685435876 14.355979816720048 -55.695517720280556 22.925707281822856 -9.073942366595185 63.29885614516457 3.975693351829396e-16 -7.951386703658792e-16 -2.2363275104040355e-16 -3.413366229065764 9.117462651369406 63.75637682958862 -20.89013026526895 -11.926874928144365 -96.891699252075 2.4848083448933725e-16 4.256574677074738e-33 1.9629985924657642e-15
0.4798000156879425 20.087200164794922 -258.03729248046875 -0.2700027935820185 3.748450158677005 -11.195925694598396 5.876019481732756e-08 -1.326398784449953e-07 177.94899201793825 -75.38548334378767 -40.68901481102023 7.7450107509188175 2.516872643366632e-06 4.531053210420075e-06 19.35711458701913 -8.348956038841733e-15 -7.951386703658797e-16 3.975693351829397e-15 31.094915498730206 51.23428365224922 -87.16745041975221 3.6210288606055585e-06 -6.519473297194228e-08 -123.2718320610563 3.1805546814635168e-15 6.3611093629270335e-15 -1.7655625192200634e-31 -0.0857006202784852 14.262372093990106 -56.53113601220296 22.906595141136712 -8.653988807149005 65.28669665216248 3.9756933518293955e-16 3.4483642953516864e-34 9.939233379573489e-17 -2.802002560372316 9.251688838695166 61.97997257043218 -20.67288469822054 -12.271041333513674 -94.58837291100211 2.484808344893372e-16 -2.4848083448933725e-17 -1.6648215910785592e-15
0.510699987411499 20.104398727416992 -258.0558166503906 -1.1303433637876454 3.6699357983777383 -10.620300105199522 6.67518644883416e-08 1.7105630308039842e-07 178.0657869354409 -74.01018654605235 -45.59896742780464 8.862628465528518 -1.6864534832586928e-06 -2.180915800195178e-06 19.000331427489122 -2.3854160110976376e-15 3.1805546814635168e-15 1.5902773407317584e-15 31.143575561242756 50.68617301780354 -85.28375516508551 2.214626141723396e-07 1.1449499876801166e-06 -124.38958504424494 0.0 0.0 0.0 0.846877394703526 14.346176276984302 -57.33823543480121 22.90940192308524 -8.232386203081791 66.25855496923782 3.975693351829396e-16 -2.4848083448933725e-17 -1.987846675914698e-16 -1.7624918520616988 9.557757928295525 60.74896028914211 -20.604024740299856 -12.4844635197384 -92.56006120760351 4.969616689786745e-16 -2.484808344893373e-17 -6.833222948456774e-16
0.5985999703407288 20.114900588989258 -258.0950012207031 -1.9742596310626166 3.6521214249494824 -10.05996092845172 1.2935014363586748e-09 7.2356546058253e-08 178.07957548928036 -73.05631386040312 -48.648869955513085 9.501431567215658 1.6342245804082914e-06 5.400586228223793e-06 18.3431862008582 9.54166404439055e-15 -1.3241718894150476e-31 -1.5902773407317584e-15 32.21961559958745 50.70876352729561 -84.19369140329538 -6.7503009058198345e-06 3.946563112857226e-06 -128.27159855817487 3.1805546814635168e-15 4.4139062980501586e-32 1.5902773407317584e-15 1.8029034855641521 14.306843531889909 -58.16584648590801 22.82908625202838 -7.886882439478322 67.50569979129916 3.975693351829395e-16 1.242404172446686e-17 4.969616689786744e-17 -0.8762373643085036 9.706906907367326 59.83413756701837 -20.34240086297708 -12.597776113705136 -90.47547995637808 -3.9756933518293955e-16 2.4848083448933712e-17 2.9941940555965136e-15
